<?xml version="1.0" encoding="UTF-8"?>
<svg id="Warstwa_2" data-name="Warstwa 2" xmlns="http://www.w3.org/2000/svg" viewBox="0 0 14.48 24">
  <defs>
    <style>
      .cls-1 {
        fill: #757cf7;
      }
    </style>
  </defs>
  <g id="Capa_1" data-name="Capa 1">
    <g>
      <path class="cls-1" d="M4.62,15.56l1.9,7.87c.18.76,1.26.76,1.45,0l1.9-7.87c-.84.27-1.72.4-2.62.4s-1.78-.14-2.62-.4Z"/>
      <path class="cls-1" d="M14.48,7.24c0-2-.81-3.81-2.12-5.12-1.31-1.31-3.12-2.12-5.12-2.12C3.24,0,0,3.24,0,7.24c0,2.91,1.72,5.42,4.19,6.57.93.43,1.96.67,3.05.67s2.12-.24,3.05-.67c2.48-1.15,4.19-3.66,4.19-6.57Z"/>
    </g>
  </g>
</svg>